<svg t="1647677673753" class="icon" viewBox="0 0 1024 1024" version="1.1" xmlns="http://www.w3.org/2000/svg" p-id="7054" width="200" height="200"><path d="M516.5568 455.8336m-358.8096 0a358.8096 358.8096 0 1 0 717.6192 0 358.8096 358.8096 0 1 0-717.6192 0Z" fill="#9EBFEF" p-id="7055"></path><path d="M482.816 412.3136m-284.3648 0a284.3648 284.3648 0 1 0 568.7296 0 284.3648 284.3648 0 1 0-568.7296 0Z" fill="#C0DAF9" p-id="7056"></path><path d="M455.68 364.032m-180.736 0a180.736 180.736 0 1 0 361.472 0 180.736 180.736 0 1 0-361.472 0Z" fill="#E9F5FF" p-id="7057"></path><path d="M516.5568 840.2432c-211.968 0-384.4096-172.4416-384.4096-384.4096s172.4416-384.4096 384.4096-384.4096 384.4096 172.4416 384.4096 384.4096-172.4416 384.4096-384.4096 384.4096z m0-717.6192c-183.7056 0-333.2096 149.4528-333.2096 333.2096s149.4528 333.2096 333.2096 333.2096 333.2096-149.4528 333.2096-333.2096-149.4528-333.2096-333.2096-333.2096zM807.4752 941.5168H225.6384c-14.1312 0-25.6-11.4688-25.6-25.6s11.4688-25.6 25.6-25.6h581.8368c14.1312 0 25.6 11.4688 25.6 25.6s-11.4688 25.6-25.6 25.6z" fill="#434A54" p-id="7058"></path></svg>